<svg width="10" height="16" viewBox="0 0 10 16" fill="none" xmlns="http://www.w3.org/2000/svg">
<path fill-rule="evenodd" clip-rule="evenodd" d="M3.47733 1.26195C4.28508 0.454069 5.38066 0.000135178 6.52308 0H8.73846C8.90167 0 9.0582 0.0648349 9.1736 0.180242C9.28901 0.295649 9.35385 0.452174 9.35385 0.615385V3.56923C9.35385 3.73244 9.28901 3.88897 9.1736 4.00437C9.0582 4.11978 8.90167 4.18462 8.73846 4.18462H6.52308C6.50691 4.18462 6.49091 4.1878 6.47598 4.19398C6.46105 4.20017 6.44748 4.20923 6.43605 4.22066C6.42462 4.23209 6.41555 4.24566 6.40937 4.26059C6.40318 4.27553 6.4 4.29153 6.4 4.30769V5.90769H8.73846C8.83202 5.90764 8.92435 5.92892 9.00845 5.96991C9.09254 6.0109 9.16618 6.07053 9.22377 6.14426C9.28136 6.21799 9.32139 6.30388 9.3408 6.39539C9.36021 6.48691 9.3585 6.58165 9.3358 6.67241L8.59733 9.62626C8.56402 9.75944 8.48713 9.87765 8.37889 9.9621C8.27065 10.0466 8.13728 10.0924 8 10.0923H6.4V15.3846C6.4 15.5478 6.33517 15.7044 6.21976 15.8198C6.10435 15.9352 5.94783 16 5.78462 16H2.83077C2.66756 16 2.51103 15.9352 2.39563 15.8198C2.28022 15.7044 2.21538 15.5478 2.21538 15.3846V10.0923H0.615385C0.452174 10.0923 0.295649 10.0275 0.180242 9.91207C0.0648349 9.79666 0 9.64013 0 9.47692V6.52308C0 6.44226 0.0159173 6.36224 0.0468433 6.28758C0.0777693 6.21292 0.123098 6.14508 0.180242 6.08793C0.237386 6.03079 0.305225 5.98546 0.379887 5.95454C0.454549 5.92361 0.534571 5.90769 0.615385 5.90769H2.21538V4.30769C2.21552 3.16527 2.66945 2.06969 3.47733 1.26195ZM6.52308 1.23077C5.70703 1.23077 4.9244 1.55494 4.34736 2.13198C3.77033 2.70901 3.44615 3.49164 3.44615 4.30769V6.52308C3.44615 6.68629 3.38132 6.84281 3.26591 6.95822C3.15051 7.07363 2.99398 7.13846 2.83077 7.13846H1.23077V8.86154H2.83077C2.99398 8.86154 3.15051 8.92637 3.26591 9.04178C3.38132 9.15719 3.44615 9.31371 3.44615 9.47692V14.7692H5.16923V9.47692C5.16923 9.31371 5.23407 9.15719 5.34947 9.04178C5.46488 8.92637 5.62141 8.86154 5.78462 8.86154H7.51918L7.94995 7.13846H5.78462C5.62141 7.13846 5.46488 7.07363 5.34947 6.95822C5.23407 6.84281 5.16923 6.68629 5.16923 6.52308V4.30769C5.16923 3.94863 5.31187 3.60427 5.56576 3.35038C5.81966 3.09648 6.16401 2.95385 6.52308 2.95385H8.12308V1.23077H6.52308Z" fill="#6E6E6E"/>
</svg>
