<svg width="14" height="15" viewBox="0 0 14 15" fill="none" xmlns="http://www.w3.org/2000/svg">
<path d="M4.36667 0.833374H9.96667C12.1 0.833374 13.8333 2.56671 13.8333 4.70004V10.3C13.8333 11.3255 13.426 12.309 12.7008 13.0342C11.9757 13.7593 10.9922 14.1667 9.96667 14.1667H4.36667C2.23333 14.1667 0.5 12.4334 0.5 10.3V4.70004C0.5 3.67454 0.90738 2.69104 1.63252 1.96589C2.35766 1.24075 3.34116 0.833374 4.36667 0.833374ZM4.23333 2.16671C3.59681 2.16671 2.98636 2.41956 2.53628 2.86965C2.08619 3.31974 1.83333 3.93019 1.83333 4.56671V10.4334C1.83333 11.76 2.90667 12.8334 4.23333 12.8334H10.1C10.7365 12.8334 11.347 12.5805 11.7971 12.1304C12.2471 11.6803 12.5 11.0699 12.5 10.4334V4.56671C12.5 3.24004 11.4267 2.16671 10.1 2.16671H4.23333ZM10.6667 3.16671C10.8877 3.16671 11.0996 3.2545 11.2559 3.41079C11.4122 3.56707 11.5 3.77903 11.5 4.00004C11.5 4.22105 11.4122 4.43302 11.2559 4.5893C11.0996 4.74558 10.8877 4.83337 10.6667 4.83337C10.4457 4.83337 10.2337 4.74558 10.0774 4.5893C9.92113 4.43302 9.83333 4.22105 9.83333 4.00004C9.83333 3.77903 9.92113 3.56707 10.0774 3.41079C10.2337 3.2545 10.4457 3.16671 10.6667 3.16671ZM7.16667 4.16671C8.05072 4.16671 8.89857 4.5179 9.52369 5.14302C10.1488 5.76814 10.5 6.61599 10.5 7.50004C10.5 8.3841 10.1488 9.23194 9.52369 9.85706C8.89857 10.4822 8.05072 10.8334 7.16667 10.8334C6.28261 10.8334 5.43477 10.4822 4.80964 9.85706C4.18452 9.23194 3.83333 8.3841 3.83333 7.50004C3.83333 6.61599 4.18452 5.76814 4.80964 5.14302C5.43477 4.5179 6.28261 4.16671 7.16667 4.16671ZM7.16667 5.50004C6.63623 5.50004 6.12753 5.71075 5.75245 6.08583C5.37738 6.4609 5.16667 6.96961 5.16667 7.50004C5.16667 8.03047 5.37738 8.53918 5.75245 8.91426C6.12753 9.28933 6.63623 9.50004 7.16667 9.50004C7.6971 9.50004 8.20581 9.28933 8.58088 8.91426C8.95595 8.53918 9.16667 8.03047 9.16667 7.50004C9.16667 6.96961 8.95595 6.4609 8.58088 6.08583C8.20581 5.71075 7.6971 5.50004 7.16667 5.50004Z" fill="#6E6E6E"/>
</svg>
