<svg width="17" height="16" viewBox="0 0 17 16" fill="none" xmlns="http://www.w3.org/2000/svg">
<path d="M4.25 6.49996C4.1837 6.49996 4.12011 6.5263 4.07322 6.57319C4.02634 6.62007 4 6.68366 4 6.74996V13.25C4 13.388 4.112 13.5 4.25 13.5H12.75C12.8163 13.5 12.8799 13.4736 12.9268 13.4267C12.9737 13.3799 13 13.3163 13 13.25V6.74996C13 6.68366 12.9737 6.62007 12.9268 6.57319C12.8799 6.5263 12.8163 6.49996 12.75 6.49996H11.75C11.5511 6.49996 11.3603 6.42094 11.2197 6.28029C11.079 6.13964 11 5.94887 11 5.74996C11 5.55105 11.079 5.36028 11.2197 5.21963C11.3603 5.07898 11.5511 4.99996 11.75 4.99996H12.75C13.716 4.99996 14.5 5.78396 14.5 6.74996V13.25C14.5 13.7141 14.3156 14.1592 13.9874 14.4874C13.6592 14.8156 13.2141 15 12.75 15H4.25C3.78587 15 3.34075 14.8156 3.01256 14.4874C2.68437 14.1592 2.5 13.7141 2.5 13.25V6.74996C2.5 5.78396 3.284 4.99996 4.25 4.99996H5.25C5.44891 4.99996 5.63968 5.07898 5.78033 5.21963C5.92098 5.36028 6 5.55105 6 5.74996C6 5.94887 5.92098 6.13964 5.78033 6.28029C5.63968 6.42094 5.44891 6.49996 5.25 6.49996H4.25ZM8.323 0.176963C8.34622 0.153681 8.37381 0.135209 8.40418 0.122606C8.43456 0.110003 8.46712 0.103516 8.5 0.103516C8.53288 0.103516 8.56544 0.110003 8.59582 0.122606C8.62619 0.135209 8.65378 0.153681 8.677 0.176963L11.573 3.07296C11.6081 3.10793 11.6319 3.15251 11.6416 3.20107C11.6513 3.24962 11.6464 3.29996 11.6274 3.34569C11.6084 3.39143 11.5763 3.43051 11.5351 3.45797C11.4939 3.48544 11.4455 3.50005 11.396 3.49996H9.25V9.24996C9.25 9.44888 9.17098 9.63964 9.03033 9.78029C8.88968 9.92095 8.69891 9.99996 8.5 9.99996C8.30109 9.99996 8.11032 9.92095 7.96967 9.78029C7.82902 9.63964 7.75 9.44888 7.75 9.24996V3.49996H5.604C5.55449 3.50005 5.50607 3.48544 5.46487 3.45797C5.42368 3.43051 5.39157 3.39143 5.37261 3.34569C5.35365 3.29996 5.3487 3.24962 5.35838 3.20107C5.36806 3.15251 5.39195 3.10793 5.427 3.07296L8.323 0.176963Z" fill="#888888"/>
</svg>
