<svg width="16" height="16" viewBox="0 0 16 16" fill="none" xmlns="http://www.w3.org/2000/svg">
<path d="M13.6683 2.32804C12.9311 1.58732 12.0531 1.00001 11.0854 0.600331C10.1178 0.200649 9.07984 -0.00341053 8.03214 4.3116e-05C3.6422 4.3116e-05 0.0643216 3.56003 0.0643216 7.92802C0.0643216 9.32802 0.43417 10.688 1.12563 11.888L0 16L4.22109 14.896C5.38692 15.528 6.69747 15.864 8.03214 15.864C12.4221 15.864 16 12.304 16 7.93602C16 5.81603 15.1718 3.82403 13.6683 2.32804ZM8.03214 14.52C6.84219 14.52 5.67637 14.2 4.65526 13.6L4.41406 13.456L1.90552 14.112L2.57286 11.68L2.41205 11.432C1.75079 10.3817 1.39973 9.16744 1.39899 7.92802C1.39899 4.29603 4.37386 1.33604 8.0241 1.33604C9.79294 1.33604 11.4573 2.02404 12.7035 3.27203C13.3207 3.88312 13.8097 4.61007 14.1424 5.41069C14.475 6.21132 14.6445 7.06969 14.6412 7.93602C14.6572 11.568 11.6824 14.52 8.03214 14.52ZM11.6663 9.59202C11.4653 9.49602 10.4844 9.01602 10.3075 8.94402C10.1226 8.88002 9.99394 8.84802 9.85726 9.04002C9.72058 9.24002 9.34269 9.68802 9.23013 9.81602C9.11756 9.95202 8.99696 9.96802 8.79596 9.86402C8.59495 9.76802 7.95174 9.55202 7.19596 8.88002C6.60099 8.35202 6.20702 7.70402 6.08642 7.50402C5.97385 7.30402 6.07033 7.20002 6.17486 7.09602C6.2633 7.00802 6.37586 6.86402 6.47234 6.75203C6.56883 6.64003 6.60903 6.55203 6.67335 6.42403C6.73767 6.28803 6.70551 6.17603 6.65727 6.08003C6.60903 5.98403 6.20702 5.00803 6.04621 4.60803C5.88541 4.22403 5.71657 4.27203 5.59596 4.26403H5.21004C5.07335 4.26403 4.86431 4.31203 4.67938 4.51203C4.5025 4.71203 3.98793 5.19203 3.98793 6.16803C3.98793 7.14402 4.7035 8.08802 4.79999 8.21602C4.89647 8.35202 6.20702 10.352 8.20098 11.208C8.67535 11.416 9.0452 11.536 9.33465 11.624C9.80902 11.776 10.2432 11.752 10.5889 11.704C10.9748 11.648 11.7708 11.224 11.9316 10.76C12.1005 10.296 12.1005 9.90402 12.0442 9.81602C11.9879 9.72802 11.8673 9.68802 11.6663 9.59202Z" fill="#6E6E6E"/>
</svg>
